<svg width="21" height="20" viewBox="0 0 21 20" fill="none" xmlns="http://www.w3.org/2000/svg">
<path d="M6.47969 0H14.8797C18.0797 0 20.6797 2.6 20.6797 5.8V14.2C20.6797 15.7383 20.0686 17.2135 18.9809 18.3012C17.8932 19.3889 16.4179 20 14.8797 20H6.47969C3.27969 20 0.679688 17.4 0.679688 14.2V5.8C0.679688 4.26174 1.29076 2.78649 2.37847 1.69878C3.46618 0.61107 4.94143 0 6.47969 0ZM6.27969 2C5.32491 2 4.40923 2.37928 3.7341 3.05442C3.05897 3.72955 2.67969 4.64522 2.67969 5.6V14.4C2.67969 16.39 4.28969 18 6.27969 18H15.0797C16.0345 18 16.9501 17.6207 17.6253 16.9456C18.3004 16.2705 18.6797 15.3548 18.6797 14.4V5.6C18.6797 3.61 17.0697 2 15.0797 2H6.27969ZM15.9297 3.5C16.2612 3.5 16.5792 3.6317 16.8136 3.86612C17.048 4.10054 17.1797 4.41848 17.1797 4.75C17.1797 5.08152 17.048 5.39946 16.8136 5.63388C16.5792 5.8683 16.2612 6 15.9297 6C15.5982 6 15.2802 5.8683 15.0458 5.63388C14.8114 5.39946 14.6797 5.08152 14.6797 4.75C14.6797 4.41848 14.8114 4.10054 15.0458 3.86612C15.2802 3.6317 15.5982 3.5 15.9297 3.5ZM10.6797 5C12.0058 5 13.2775 5.52678 14.2152 6.46447C15.1529 7.40215 15.6797 8.67392 15.6797 10C15.6797 11.3261 15.1529 12.5979 14.2152 13.5355C13.2775 14.4732 12.0058 15 10.6797 15C9.35361 15 8.08184 14.4732 7.14415 13.5355C6.20647 12.5979 5.67969 11.3261 5.67969 10C5.67969 8.67392 6.20647 7.40215 7.14415 6.46447C8.08184 5.52678 9.35361 5 10.6797 5ZM10.6797 7C9.88404 7 9.12098 7.31607 8.55837 7.87868C7.99576 8.44129 7.67969 9.20435 7.67969 10C7.67969 10.7956 7.99576 11.5587 8.55837 12.1213C9.12098 12.6839 9.88404 13 10.6797 13C11.4753 13 12.2384 12.6839 12.801 12.1213C13.3636 11.5587 13.6797 10.7956 13.6797 10C13.6797 9.20435 13.3636 8.44129 12.801 7.87868C12.2384 7.31607 11.4753 7 10.6797 7Z" fill="#596881"/>
</svg>
