<svg width="21" height="15" viewBox="0 0 21 15" fill="none" xmlns="http://www.w3.org/2000/svg">
<path fill-rule="evenodd" clip-rule="evenodd" d="M14.4733 0.00970558C16.2268 -0.111026 17.5816 0.912321 18.4833 2.09281C19.3917 3.28384 20.0174 4.83898 20.3613 6.36825C20.7034 7.89753 20.7954 9.54082 20.5108 10.9417C20.2377 12.287 19.5086 13.8258 17.8595 14.3193C16.3072 14.7831 14.9466 14.1085 13.9769 13.2921C13.0034 12.4729 12.1794 11.325 11.5316 10.2489C11.2286 9.74332 10.9442 9.22683 10.6788 8.70049C10.4137 9.22647 10.1296 9.74264 9.827 10.248C9.17926 11.325 8.35522 12.4729 7.3817 13.2921C6.41105 14.1085 5.05138 14.7831 3.49911 14.3193C1.85007 13.8258 1.12089 12.288 0.847801 10.9417C0.564177 9.54082 0.656163 7.89753 0.998237 6.36825C1.34127 4.83898 1.96697 3.28288 2.87629 2.09281C3.77699 0.912321 5.13187 -0.111026 6.88536 0.00970558C8.52961 0.124688 9.72447 1.23906 10.469 2.18384L10.6798 2.46076L10.8896 2.18288C11.6341 1.23906 12.829 0.12373 14.4733 0.00970558ZM6.68605 2.87757C6.28361 2.84978 5.75661 3.05579 5.16061 3.83767C4.57229 4.60902 4.08361 5.74735 3.80286 6.99779C3.52307 8.24822 3.48187 9.46896 3.66488 10.3706C3.82298 11.1467 4.0769 11.4256 4.23213 11.5233L4.29728 11.5559L4.32316 11.5655C4.54546 11.6326 4.91148 11.6134 5.53048 11.0921C6.14851 10.5728 6.779 9.73821 7.36445 8.7666C7.62508 8.33254 7.8675 7.88794 8.08501 7.46059L8.33414 6.95754L8.5574 6.48132L8.75479 6.04247L8.92247 5.65249L9.05949 5.32095C8.87409 4.94857 8.66177 4.59021 8.42421 4.24874C7.80714 3.37104 7.18814 2.91302 6.68605 2.87853V2.87757ZM14.6726 2.87757C14.1705 2.91302 13.5515 3.37104 12.9344 4.24874C12.6968 4.5902 12.4845 4.94856 12.2991 5.32095L12.5166 5.84125L12.6987 6.2571L12.8012 6.48132L13.0254 6.95754L13.2746 7.46059C13.4921 7.88794 13.7335 8.33254 13.9942 8.7666C14.5796 9.73821 15.2111 10.5728 15.8272 11.0921C16.4031 11.577 16.7595 11.6268 16.9866 11.5779L17.0364 11.5655C17.161 11.5271 17.4992 11.3269 17.6937 10.3697C17.8758 9.46896 17.8365 8.24822 17.5558 6.99683C17.276 5.74735 16.7873 4.60902 16.198 3.83767C15.6011 3.05579 15.075 2.85074 14.6726 2.87757Z" fill="#596881"/>
</svg>
